<?xml version="1.0" encoding="UTF-8" standalone="no"?>
<!-- Created with Inkscape (http://www.inkscape.org/) -->

<svg
   width="10.053031mm"
   height="11.113491mm"
   viewBox="0 0 10.053031 11.113491"
   version="1.1"
   id="svg1"
   xmlns:xlink="http://www.w3.org/1999/xlink"
   xmlns="http://www.w3.org/2000/svg"
   xmlns:svg="http://www.w3.org/2000/svg">
  <defs
     id="defs1">
    <linearGradient
       id="linearGradient1465">
      <stop
         style="stop-color:#000000;stop-opacity:0;"
         offset="0"
         id="stop1465" />
      <stop
         style="stop-color:#000000;stop-opacity:0;"
         offset="1"
         id="stop1466" />
    </linearGradient>
    <linearGradient
       id="swatch75">
      <stop
         style="stop-color:#000000;stop-opacity:0.08333327;"
         offset="0"
         id="stop75" />
    </linearGradient>
    <linearGradient
       xlink:href="#linearGradient1465"
       id="linearGradient1466"
       x1="72.600632"
       y1="144.41818"
       x2="72.600624"
       y2="106.955"
       gradientUnits="userSpaceOnUse"
       gradientTransform="matrix(0.91527388,0,0,1.0016127,42.225719,24.585877)" />
    <clipPath
       clipPathUnits="userSpaceOnUse"
       id="clipPath1819">
      <path
         id="path1820"
         style="fill:#ff0000;fill-opacity:1;fill-rule:nonzero;stroke:none;stroke-width:0.264583"
         d="m 99.435392,142.93513 v 11.12955 h 10.215918 v -6.53448 h -1.10898 c -0.897,0 -0.897,-0.90589 0,-0.90589 h 0.19275 c -0.0986,-0.0115 -0.0869,-0.12058 0.0341,-0.13591 0.0779,-0.01 0.15374,-0.0304 0.22944,-0.0506 0.0941,-0.0255 0.18486,-0.061 0.2744,-0.0992 0.048,-0.058 0.095,-0.11675 0.13436,-0.18087 0.003,-0.008 0.006,-0.0169 0.009,-0.0253 0.0277,-0.0761 0.0473,-0.15444 0.063,-0.23358 -9.3e-4,-0.0205 -0.002,-0.041 -0.003,-0.0615 -0.006,-0.12523 -0.0141,-0.25028 -0.0129,-0.37569 4.2e-4,-0.0476 0.0245,-0.0713 0.0486,-0.0713 0.024,0 0.0479,0.0237 0.0475,0.0713 -5.1e-4,0.0604 0.002,0.12101 0.004,0.18138 0.0126,10e-4 0.0277,0.004 0.047,0.0114 0.009,0.003 0.0135,0.0786 0.0139,0.0827 0.002,0.0618 -0.003,0.12453 -0.015,0.18551 0.0106,0.009 0.0208,0.0185 0.0274,0.0305 0.007,0.0117 -0.005,0.0263 -0.008,0.0393 -0.0119,0.0453 -0.0285,0.0893 -0.047,0.13229 0,0.0165 0.001,0.0331 5.3e-4,0.0496 0.0126,-0.008 0.0251,-0.0159 0.0377,-0.0238 0.0102,-0.007 0.0204,-0.0144 0.0305,-0.0217 v -3.1936 z m 9.651088,3.61683 c -0.0175,0.006 -0.0348,0.0122 -0.0527,0.0171 -0.087,0.0232 -0.1746,0.0474 -0.26458,0.0553 h 0.21446 c 0.0134,-0.0178 0.0354,-0.0344 0.0667,-0.046 0.0117,-0.004 0.0231,-0.01 0.0346,-0.0145 -1.9e-4,-0.004 5.8e-4,-0.008 0.002,-0.0119 z" />
    </clipPath>
  </defs>
  <g
     id="layer1"
     transform="translate(-44.501136,-87.99901)">
    <g
       id="g1487"
       transform="translate(-55.01704,-54.999724)">
      <path
         id="rect1220"
         style="fill:url(#linearGradient1466);fill-opacity:1;stroke:#000000;stroke-width:0.529166;stroke-linecap:round;stroke-dasharray:none;stroke-opacity:1"
         d="m 100.66854,143.19981 c -0.53664,0 -0.968664,0.47278 -0.968664,1.06003 v 8.48033 c 0,0.58726 0.432024,1.06004 0.968664,1.06004 h 7.74932 c 0.53664,0 0.96866,-0.47278 0.96866,-1.06004 v -6.24068 c -0.0605,-0.17597 -0.12215,-0.35152 -0.1802,-0.52846 -0.0118,-0.0361 -0.0217,-0.071 -0.0298,-0.10508 -0.26531,-0.28304 -0.52364,-0.57361 -0.75914,-0.88716 -0.41431,-0.53976 -0.8193,-1.08757 -1.22076,-1.63872 -0.0881,-0.0463 -0.17613,-0.0932 -0.26392,-0.14026 z"
         clip-path="url(#clipPath1819)" />
      <path
         style="fill:#000000;fill-opacity:0;stroke:#000000;stroke-width:0.529166;stroke-linecap:round;stroke-dasharray:none;stroke-opacity:1"
         d="m 106.90264,143.47799 c 0,0 -0.7828,3.32313 2.19183,2.6747"
         id="path1485" />
      <path
         style="fill:#000000;fill-opacity:0;stroke:#000000;stroke-width:0.529167;stroke-linecap:round;stroke-dasharray:none;stroke-opacity:1"
         d="m 102.82796,148.5 h 3.43048"
         id="path1486" />
      <path
         style="fill:#000000;fill-opacity:0;stroke:#000000;stroke-width:0.529167;stroke-linecap:round;stroke-dasharray:none;stroke-opacity:1"
         d="m 104.5432,146.84279 v 3.31443"
         id="path1487" />
    </g>
  </g>
</svg>
