<?xml version="1.0" encoding="UTF-8" standalone="no"?>
<svg
   xmlns:dc="http://purl.org/dc/elements/1.1/"
   xmlns:cc="http://creativecommons.org/ns#"
   xmlns:rdf="http://www.w3.org/1999/02/22-rdf-syntax-ns#"
   xmlns:svg="http://www.w3.org/2000/svg"
   xmlns="http://www.w3.org/2000/svg"
   viewBox="0 0 457.33334 457.33334"
   height="457.33334"
   width="457.33334"
   xml:space="preserve"
   id="svg2"
   version="1.1"><metadata
     id="metadata8"><rdf:RDF><cc:Work
         rdf:about=""><dc:format>image/svg+xml</dc:format><dc:type
           rdf:resource="http://purl.org/dc/dcmitype/StillImage" /></cc:Work></rdf:RDF></metadata><defs
     id="defs6" /><g
     transform="matrix(1.3333333,0,0,1.3333333,0,8.0999999e-6)"
     id="g10"><g
       id="g12"><g
         id="g14"><path
           id="path16"
           style="fill:#d0d0d0;fill-opacity:1;fill-rule:nonzero;stroke:#c0c0c0;stroke-width:2.83471107;stroke-linecap:butt;stroke-linejoin:miter;stroke-miterlimit:4;stroke-dasharray:none;stroke-opacity:1"
           d="m 35.434,1.418 h 272.132 c 18.844,0 34.016,15.172 34.016,34.016 v 272.132 c 0,18.844 -15.172,34.016 -34.016,34.016 H 35.434 C 16.59,341.582 1.418,326.41 1.418,307.566 V 35.434 C 1.418,16.59 16.59,1.418 35.434,1.418 Z" /></g><g
         id="g18"><path
           id="path20"
           style="fill:#ffffff;fill-opacity:1;fill-rule:nonzero;stroke:#f5f5f5;stroke-width:2.83471107;stroke-linecap:butt;stroke-linejoin:miter;stroke-miterlimit:4;stroke-dasharray:none;stroke-opacity:1"
           d="m 100.633,106.301 c 0,12.527 -10.153,22.679 -22.68,22.679 -12.523,0 -22.676,-10.152 -22.676,-22.679 0,-12.524 10.153,-22.676 22.676,-22.676 12.527,0 22.68,10.152 22.68,22.676 z" /></g><g
         id="g22"><path
           id="path24"
           style="fill:#ffffff;fill-opacity:1;fill-rule:nonzero;stroke:#f5f5f5;stroke-width:2.83471107;stroke-linecap:butt;stroke-linejoin:miter;stroke-miterlimit:4;stroke-dasharray:none;stroke-opacity:1"
           d="m 194.176,106.301 c 0,12.527 -10.153,22.679 -22.676,22.679 -12.523,0 -22.676,-10.152 -22.676,-22.679 0,-12.524 10.153,-22.676 22.676,-22.676 12.523,0 22.676,10.152 22.676,22.676 z" /></g><g
         id="g26"><path
           id="path28"
           style="fill:#ffffff;fill-opacity:1;fill-rule:nonzero;stroke:#f5f5f5;stroke-width:2.83471107;stroke-linecap:butt;stroke-linejoin:miter;stroke-miterlimit:4;stroke-dasharray:none;stroke-opacity:1"
           d="m 289.141,106.301 c 0,12.527 -10.153,22.679 -22.68,22.679 -12.523,0 -22.676,-10.152 -22.676,-22.679 0,-12.524 10.153,-22.676 22.676,-22.676 12.527,0 22.68,10.152 22.68,22.676 z" /></g><g
         id="g30"><path
           id="path32"
           style="fill:#ffffff;fill-opacity:1;fill-rule:nonzero;stroke:#f5f5f5;stroke-width:2.83471107;stroke-linecap:butt;stroke-linejoin:miter;stroke-miterlimit:4;stroke-dasharray:none;stroke-opacity:1"
           d="m 289.141,171.5 c 0,12.523 -10.153,22.676 -22.68,22.676 -12.523,0 -22.676,-10.153 -22.676,-22.676 0,-12.523 10.153,-22.676 22.676,-22.676 12.527,0 22.68,10.153 22.68,22.676 z" /></g><g
         id="g34"><path
           id="path36"
           style="fill:#ffffff;fill-opacity:1;fill-rule:nonzero;stroke:#f5f5f5;stroke-width:2.83471107;stroke-linecap:butt;stroke-linejoin:miter;stroke-miterlimit:4;stroke-dasharray:none;stroke-opacity:1"
           d="m 194.176,171.5 c 0,12.523 -10.153,22.676 -22.676,22.676 -12.523,0 -22.676,-10.153 -22.676,-22.676 0,-12.523 10.153,-22.676 22.676,-22.676 12.523,0 22.676,10.153 22.676,22.676 z" /></g><g
         id="g38"><path
           id="path40"
           style="fill:#ffffff;fill-opacity:1;fill-rule:nonzero;stroke:#f5f5f5;stroke-width:2.83471107;stroke-linecap:butt;stroke-linejoin:miter;stroke-miterlimit:4;stroke-dasharray:none;stroke-opacity:1"
           d="m 99.215,171.5 c 0,12.523 -10.153,22.676 -22.676,22.676 -12.527,0 -22.68,-10.153 -22.68,-22.676 0,-12.523 10.153,-22.676 22.68,-22.676 12.523,0 22.676,10.153 22.676,22.676 z" /></g><g
         id="g42"><path
           id="path44"
           style="fill:#ffffff;fill-opacity:1;fill-rule:nonzero;stroke:#f5f5f5;stroke-width:2.83471107;stroke-linecap:butt;stroke-linejoin:miter;stroke-miterlimit:4;stroke-dasharray:none;stroke-opacity:1"
           d="m 146.695,233.863 c 0,12.524 -10.152,22.68 -22.675,22.68 -12.528,0 -22.68,-10.156 -22.68,-22.68 0,-12.523 10.152,-22.675 22.68,-22.675 12.523,0 22.675,10.152 22.675,22.675 z" /></g><g
         id="g46"><path
           id="path48"
           style="fill:#ffffff;fill-opacity:1;fill-rule:nonzero;stroke:#f5f5f5;stroke-width:2.83471107;stroke-linecap:butt;stroke-linejoin:miter;stroke-miterlimit:4;stroke-dasharray:none;stroke-opacity:1"
           d="m 241.66,233.863 c 0,12.524 -10.152,22.68 -22.68,22.68 -12.523,0 -22.675,-10.156 -22.675,-22.68 0,-12.523 10.152,-22.675 22.675,-22.675 12.528,0 22.68,10.152 22.68,22.675 z" /></g></g></g></svg>