<?xml version="1.0" encoding="UTF-8" standalone="no"?>
<!-- Created with Inkscape (http://www.inkscape.org/) -->

<svg
   width="9.7884474mm"
   height="10.848908mm"
   viewBox="0 0 9.7884474 10.848909"
   version="1.1"
   id="svg1"
   xmlns="http://www.w3.org/2000/svg"
   xmlns:svg="http://www.w3.org/2000/svg">
  <defs
     id="defs1">
    <linearGradient
       id="swatch75">
      <stop
         style="stop-color:#000000;stop-opacity:0.08333327;"
         offset="0"
         id="stop75" />
    </linearGradient>
    <clipPath
       clipPathUnits="userSpaceOnUse"
       id="clipPath1881">
      <path
         id="path1882"
         style="fill:#ff0000;fill-opacity:1;fill-rule:nonzero;stroke:none;stroke-width:0.264583"
         d="m 113.89963,154.93595 v 10.82776 h 8.18192 v -10.82776 z m 7.58971,9.54515 c 0.0398,1e-5 0.0809,0.0396 0.0842,0.11886 0.002,0.0394 0.004,0.0792 0.01,0.11834 0.006,0.0268 0.008,0.0724 0.0212,0.0961 0.0131,0.0331 0.0296,0.065 0.0439,0.0977 0.0139,0.0283 0.0263,0.0574 0.0455,0.0827 0.0189,0.0247 0.0383,0.0495 0.0563,0.0749 0.0123,0.0181 0.0318,0.0331 0.0393,0.0543 0.004,0.0121 0.006,0.0252 0.009,0.0377 -0.005,0.0168 -0.006,0.0349 -0.0145,0.0501 -0.0212,0.0376 -0.0673,0.0446 -0.10542,0.0486 -0.031,0.003 -0.0625,0.003 -0.0935,0.004 -0.0336,4e-4 -0.0672,4.2e-4 -0.10077,5e-4 -0.0529,-0.001 -0.10434,-0.0115 -0.15503,-0.0258 -0.0323,-0.009 -0.0161,-0.005 -0.0475,-0.0134 -0.15321,-0.0409 -0.11179,-0.1955 0.0413,-0.15451 0.034,0.009 0.0166,0.004 0.0501,0.014 0.01,0.003 0.0193,0.004 0.0289,0.007 -0.0699,-0.0602 -0.0523,-0.13574 0.0196,-0.14005 0.021,-0.001 0.0466,0.004 0.076,0.0171 3.5e-4,1.5e-4 6.9e-4,3.5e-4 0.001,5.1e-4 -0.0143,-0.0322 -0.0306,-0.0638 -0.0434,-0.0966 -0.0153,-0.043 -0.0246,-0.0875 -0.0305,-0.13281 -0.006,-0.0461 -0.0105,-0.0931 -0.0119,-0.13953 -0.002,-0.0793 0.0366,-0.11886 0.0765,-0.11885 z" />
    </clipPath>
    <clipPath
       clipPathUnits="userSpaceOnUse"
       id="clipPath1966">
      <path
         id="path1967"
         style="fill:#ff0000;fill-opacity:1;fill-rule:nonzero;stroke:none;stroke-width:0.264583"
         d="m 122.05417,163.76332 -0.44804,5e-4 v 1.98076 h 2.05517 v -1.98075 h -0.53175 c -2.9e-4,0.0122 -10e-4,0.0245 -10e-4,0.0367 -5.8e-4,0.0348 -0.001,0.0696 -0.001,0.10439 -1.1e-4,0.0325 2e-5,0.0651 0,0.0977 -2e-5,0.04 0,0.0799 0,0.11989 -1e-5,0.0439 0,0.0879 0,0.13177 v 0.11266 0.11007 0.11782 c -2e-4,0.0418 1.5e-4,0.0834 -0.002,0.12506 -0.008,0.0465 -0.0304,0.0857 -0.0574,0.1235 -0.092,0.12912 -0.22806,0.0289 -0.12919,-0.0951 0.01,-0.0122 0.0149,-0.0254 0.0233,-0.0382 6.1e-4,-9.5e-4 0.003,-0.001 0.004,-0.001 0.003,-0.038 3.5e-4,-0.0761 10e-4,-0.1142 v -0.0295 c -0.0119,0.007 -0.0249,0.01 -0.0377,0.009 -7.9e-4,0.0162 -0.002,0.0324 -0.003,0.0486 -0.008,0.15838 -0.1682,0.1506 -0.1602,-0.008 0.003,-0.058 0.006,-0.1156 0.007,-0.17363 -5e-5,-0.0101 4e-5,-0.0203 0,-0.0305 -0.0368,0.0112 -0.0794,-0.0121 -0.094,-0.0713 -0.002,0.002 -0.004,0.003 -0.006,0.005 -0.0139,0.0838 -0.0219,0.16979 -0.0538,0.24856 -0.006,0.0136 -0.0131,0.0262 -0.0196,0.0393 -0.016,0.0139 -0.0269,0.0404 -0.0481,0.0418 -0.0394,0.003 -0.0823,-0.009 -0.11472,-0.031 -0.0226,-0.0156 -0.0268,-0.0478 -0.0367,-0.0734 -0.0179,-0.0465 -0.0279,-0.10074 -0.0362,-0.15452 -0.0172,0.0255 -0.0411,0.0375 -0.0641,0.0362 0.002,0.0179 0.003,0.0357 0.005,0.0537 0.005,0.0435 0.002,0.0223 0.007,0.0641 0.01,0.0965 -0.0456,0.13989 -0.094,0.12299 0.002,0.0137 0.005,0.0271 0.008,0.0408 0.006,0.0236 0.0171,0.0455 0.0279,0.0672 0.0118,0.0224 0.0235,0.0451 0.0398,0.0646 0.0144,0.0205 0.0327,0.037 0.0496,0.0553 0.012,0.0103 0.0226,0.0232 0.0377,0.0289 0.1484,0.0558 0.0697,0.21708 -0.0708,0.14366 -0.032,-0.0167 -0.0614,-0.0384 -0.0863,-0.0646 -0.019,-0.0214 -0.0389,-0.0409 -0.0553,-0.0646 -0.0221,-0.0287 -0.0428,-0.06 -0.0589,-0.0925 -0.017,-0.0339 -0.0323,-0.0682 -0.0408,-0.10542 -0.009,-0.0435 -0.018,-0.087 -0.016,-0.13177 v -0.13281 -0.15038 -0.11886 -0.10748 -0.10697 -0.10697 -0.13901 z m 0.49144,0.36586 -5.3e-4,5.3e-4 c -1.8e-4,0.006 -3.4e-4,0.0115 -5e-4,0.0171 7.9e-4,-0.005 0.002,-0.0103 0.003,-0.0155 -7.2e-4,-4e-4 -10e-4,-0.001 -0.002,-0.002 z" />
    </clipPath>
  </defs>
  <g
     id="layer1"
     transform="translate(-44.501136,-87.99901)">
    <g
       id="g1487"
       transform="translate(-55.01704,-54.999724)">
      <g
         id="g1971"
         transform="translate(-14.382636,-55.084687)">
        <g
           id="g1969"
           transform="translate(0,43.148462)">
          <rect
             style="fill:#ffffff;fill-opacity:1;stroke:#000000;stroke-width:0.529167;stroke-linecap:round;stroke-dasharray:none;stroke-opacity:1"
             id="rect1821"
             width="7.6529551"
             height="10.298788"
             x="114.16426"
             y="155.20047"
             rx="0.53847295"
             ry="0.60144919"
             clip-path="url(#clipPath1881)" />
          <ellipse
             style="fill:#ffffff;fill-opacity:1;stroke:#000000;stroke-width:0.529167;stroke-linecap:round;stroke-dasharray:none;stroke-opacity:1"
             id="path1822"
             cx="122.63379"
             cy="164.7542"
             rx="0.76288241"
             ry="0.72601712"
             clip-path="url(#clipPath1966)" />
          <path
             style="fill:#ffffff;fill-opacity:1;stroke:#000000;stroke-width:0.529167;stroke-linecap:round;stroke-dasharray:none;stroke-opacity:1"
             d="m 123.39257,164.5463 v -4.0651 c 0,0 -0.0323,-1.09444 -0.70929,-0.9381"
             id="path1823" />
          <path
             style="fill:#ffffff;fill-opacity:1;stroke:#000000;stroke-width:0.529167;stroke-linecap:round;stroke-dasharray:none;stroke-opacity:1"
             d="m 120.75493,165.502 h 1.83285"
             id="path1825" />
        </g>
        <g
           id="g1968"
           transform="translate(-12.109506,43.734898)">
          <g
             id="g1970"
             transform="translate(12.109506)">
            <path
               style="fill:#ffffff;fill-opacity:0;stroke:#000000;stroke-width:0.47216;stroke-linecap:round;stroke-dasharray:none;stroke-opacity:1"
               d="m 116.23796,158.82537 h 3.57072"
               id="path1968" />
            <path
               style="fill:#ffffff;fill-opacity:0;stroke:#000000;stroke-width:0.47216;stroke-linecap:round;stroke-dasharray:none;stroke-opacity:1"
               d="m 116.23796,160.70429 h 3.57072"
               id="path1968-2" />
          </g>
        </g>
      </g>
    </g>
  </g>
</svg>
